<svg width="45" height="45" viewBox="0 0 45 45" fill="none" xmlns="http://www.w3.org/2000/svg">
<path d="M10.2375 34.6688V29.1937C10.2375 27.375 11.6625 25.7437 13.6875 25.7437C15.5063 25.7437 17.1375 27.1687 17.1375 29.1937V34.4625C17.1375 38.1187 14.1 41.1563 10.4438 41.1563C6.7875 41.1563 3.75 38.1 3.75 34.4625V22.9125C3.54375 12.375 11.8688 3.84375 22.4063 3.84375C32.9437 3.84375 41.25 12.375 41.25 22.7062V34.2563C41.25 37.9125 38.2125 40.95 34.5563 40.95C30.9 40.95 27.8625 37.9125 27.8625 34.2563V28.9875C27.8625 27.1687 29.2875 25.5375 31.3125 25.5375C33.1313 25.5375 34.7625 26.9625 34.7625 28.9875V34.6688" stroke="#EDA415" stroke-width="2.5" stroke-linecap="round" stroke-linejoin="round"/>
</svg>
